<svg width="203px" height="190px" viewBox="0 0 203 190" version="1.1" xmlns="http://www.w3.org/2000/svg" xmlns:xlink="http://www.w3.org/1999/xlink">
    <defs>
        <path d="M86.368,71.8 C88.6720115,71.8 90.5919923,72.5679923 92.128,74.104 C93.6640077,75.6400077 94.432,77.5599885 94.432,79.864 C94.432,82.072011 93.6640077,83.9199926 92.128,85.408 C90.5919923,86.8960074 88.6720115,87.64 86.368,87.64 L80.32,87.64 L80.32,106.216 C80.32,108.712012 79.4800084,110.799992 77.8,112.48 C76.1199916,114.160008 74.0320125,115 71.536,115 C69.135988,115 67.1200082,114.160008 65.488,112.48 C63.8559918,110.799992 63.04,108.712012 63.04,106.216 L63.04,87.64 L25.6,87.64 C23.4879894,87.64 21.5200091,86.8000084 19.696,85.12 C17.8719909,83.4399916 16.96,81.4480115 16.96,79.144 C16.96,77.0319894 17.6799928,75.1120086 19.12,73.384 L64.624,17.656 C66.4480091,15.3519885 68.8479851,14.2 71.824,14.2 C74.224012,14.2 76.2399918,15.0399916 77.872,16.72 C79.5040082,18.4000084 80.32,20.4879875 80.32,22.984 L80.32,71.8 L86.368,71.8 Z M39.712,71.8 L63.04,71.8 L63.04,43 L39.712,71.8 Z" id="path-1"></path>
        <filter x="-35.5%" y="-31.2%" width="207.1%" height="182.3%" filterUnits="objectBoundingBox" id="filter-2">
            <feOffset dx="14" dy="10" in="SourceAlpha" result="shadowOffsetOuter1"></feOffset>
            <feGaussianBlur stdDeviation="11.5" in="shadowOffsetOuter1" result="shadowBlurOuter1"></feGaussianBlur>
            <feColorMatrix values="0 0 0 0 0   0 0 0 0 0   0 0 0 0 0  0 0 0 0.291638361 0" type="matrix" in="shadowBlurOuter1"></feColorMatrix>
        </filter>
        <polygon id="path-3" points="0.529992 0.552695589 16.99048 0.552695589 16.99048 16.7278692 0.529992 16.7278692"></polygon>
    </defs>
    <g id="Page-1" stroke="none" stroke-width="1" fill="none" fill-rule="evenodd">
        <g id="Artboard" transform="translate(-440.000000, -55.000000)">
            <g id="Group-5" transform="translate(408.000000, 25.000000)">
                <g id="Group" transform="translate(106.376058, 149.920075) rotate(133.000000) translate(-106.376058, -149.920075) translate(46.376058, 60.420075)" fill="#FFFFFF">
                    <path d="M46.103816,175.25191 C46.5582429,175.187148 46.8982535,175.017532 47.1281654,174.74409 C47.356998,174.470649 47.4390323,174.133473 47.3753477,173.731534 C47.3494422,173.567058 47.3073456,173.412862 47.2490581,173.268945 C47.1896912,173.125029 47.0990217,173.003728 46.9748908,172.908126 C46.8507599,172.811496 46.6866913,172.745706 46.4816056,172.709727 C46.274361,172.674776 46.0153053,172.679915 45.7033591,172.725146 L43.919113,172.98214 L44.3206493,175.508904 L46.103816,175.25191 Z M43.1862012,168.364475 L43.5920552,170.925161 L45.1301984,170.703119 C45.57599,170.639384 45.9192388,170.458461 46.1610242,170.160348 C46.4006507,169.863263 46.4891614,169.512723 46.4265562,169.109757 C46.4028095,168.968924 46.3563953,168.830148 46.2883932,168.695483 C46.2182323,168.560818 46.1167688,168.445685 45.981844,168.351111 C45.8469191,168.255509 45.6752947,168.187663 45.4680502,168.144488 C45.2608056,168.102341 45.0125439,168.101313 44.723265,168.14346 L43.1862012,168.364475 Z M44.4847179,165.959012 C45.267282,165.846963 45.9591766,165.819208 46.5614811,165.877802 C47.1616268,165.935369 47.6732618,166.063866 48.0942273,166.263293 C48.513034,166.461692 48.8422506,166.720742 49.0818771,167.04147 C49.3204243,167.361171 49.4726195,167.72713 49.5384628,168.136264 C49.5784006,168.389146 49.5859564,168.653336 49.5611302,168.927805 C49.536304,169.201247 49.4618255,169.471604 49.3355358,169.73785 C49.2092462,170.004095 49.019272,170.255949 48.7656133,170.49444 C48.5108752,170.73293 48.1697852,170.944693 47.7434227,171.127673 C48.1233711,171.157484 48.4838902,171.223274 48.8249802,171.3271 C49.1660702,171.429897 49.4683019,171.573814 49.733834,171.756794 C49.9993661,171.938745 50.2195634,172.1649 50.394426,172.433201 C50.5692886,172.701503 50.6847843,173.018119 50.7430718,173.384079 C50.8412971,174.001892 50.7884066,174.548775 50.5833208,175.024727 C50.378235,175.499652 50.0738446,175.908786 49.6669113,176.249046 C49.2599779,176.589306 48.7796455,176.865831 48.2248345,177.07965 C47.6700236,177.292441 47.0925453,177.442526 46.4891614,177.529904 L41.2292513,178.286493 L39.3888765,166.692987 L44.4847179,165.959012 Z" id="Fill-1"></path>
                    <path d="M64.5215969,159.628605 L68.4122591,171.049192 L65.163293,172.272181 L61.2726308,160.849466 L64.5215969,159.628605 Z M58.5530134,172.098835 C58.9862089,171.935061 59.2716321,171.685146 59.4082708,171.348027 C59.5459217,171.010907 59.5449096,170.636566 59.4042223,170.225004 C59.3475425,170.056976 59.2655592,169.902773 59.1592846,169.764522 C59.0530101,169.626271 58.9254805,169.517797 58.7746718,169.436974 C58.6258874,169.35615 58.4558481,169.312548 58.2635417,169.306167 C58.0722474,169.299786 57.8647589,169.338071 57.6410762,169.422085 L56.0479695,170.020818 L56.9588945,172.697568 L58.5530134,172.098835 Z M56.831365,167.080328 C57.5924935,166.793191 58.2746752,166.647496 58.8758857,166.641115 C59.4770963,166.634735 60.0013843,166.735764 60.450774,166.94314 C60.9001637,167.150517 61.2766794,167.447224 61.5803211,167.82901 C61.8839628,168.211858 62.118779,168.645753 62.2837576,169.130695 C62.4720155,169.680508 62.5489381,170.22075 62.5165496,170.751421 C62.4841612,171.281028 62.344486,171.778731 62.0965119,172.244531 C61.8485379,172.71033 61.4973257,173.132527 61.0388267,173.512185 C60.5803278,173.891843 60.0236513,174.204503 59.365761,174.451228 L54.6805697,176.213395 L50.7909196,164.791744 L53.8728828,163.633627 L55.2483797,167.674807 L56.831365,167.080328 Z" id="Fill-3"></path>
                    <path d="M77.4589839,163.807723 C78.1613755,163.38896 78.5346525,162.853026 78.5777634,162.200938 C78.6219257,161.547831 78.3495912,160.757175 77.7597085,159.82795 C77.1719287,158.897706 76.5673251,158.305733 75.9490523,158.051011 C75.3318309,157.796289 74.6704472,157.8778 73.9680556,158.296563 C73.237274,158.730609 72.8471732,159.271638 72.796702,159.91965 C72.7462307,160.567662 73.0133078,161.353224 73.5979331,162.276336 C74.1920218,163.212693 74.8008313,163.810779 75.4254131,164.069577 C76.0510463,164.329393 76.7292537,164.241769 77.4589839,163.807723 Z M72.2699083,154.031502 C71.7252394,154.400339 71.3025426,154.785478 71.0007666,155.187939 C70.6989906,155.591418 70.5065689,156.011199 70.4213987,156.446264 C70.3362284,156.883367 70.3456918,157.333715 70.4539947,157.795271 C70.5601946,158.257845 70.7484103,158.72959 71.0175903,159.208467 C71.0480834,158.901782 71.1185328,158.590002 71.2268357,158.275166 C71.3351386,157.961349 71.4886554,157.654664 71.6894889,157.35613 C71.8892709,157.057596 72.1311124,156.772308 72.4139617,156.497208 C72.6978625,156.224147 73.033286,155.972482 73.4212837,155.741194 C74.0984397,155.337715 74.7829561,155.091144 75.4748328,154.998426 C76.1677611,154.907745 76.8407111,154.95767 77.4926314,155.153297 C78.1456033,155.347904 78.7628246,155.680061 79.345347,156.148749 C79.9278694,156.617437 80.4494056,157.215524 80.9078528,157.94199 C81.3841753,158.69291 81.6859513,159.44383 81.8121295,160.192712 C81.9383076,160.941594 81.9057116,161.662966 81.7153929,162.353771 C81.5250742,163.045595 81.1822903,163.694626 80.6880926,164.298826 C80.1938949,164.905064 79.5587983,165.438961 78.7838543,165.899498 C78.0015499,166.365129 77.2118851,166.667739 76.4148599,166.808345 C75.6178347,166.94997 74.819758,166.893931 74.0216813,166.640229 C73.2236047,166.387545 72.4339399,165.919875 71.6526869,165.235183 C70.8703825,164.55151 70.1027989,163.615153 69.3488846,162.424074 C68.7274573,161.443905 68.236414,160.466792 67.8778579,159.491717 C67.5182502,158.517661 67.3521156,157.569078 67.3784027,156.645966 C67.4036384,155.722854 67.6549432,154.839479 68.1291626,153.99686 C68.6033821,153.153221 69.3646568,152.371735 70.4108838,151.652401 L73.877628,149.263111 L74.9879955,150.652873 C75.2193221,150.945293 75.3381398,151.24077 75.3455002,151.538285 C75.3539121,151.836819 75.1940865,152.091541 74.8670748,152.30347 L72.2699083,154.031502 Z" id="Fill-5"></path>
                    <path d="M87.4664179,149.80828 C87.2838809,149.592131 87.081062,149.404732 86.8559331,149.249275 C86.6308041,149.092754 86.3904638,148.989471 86.1359261,148.940492 C85.8813884,148.890448 85.6136675,148.90429 85.3337774,148.986277 C85.0559155,149.067199 84.7770396,149.236498 84.4971495,149.494173 C84.0063279,149.94883 83.7457056,150.452466 83.7152828,151.007212 C83.6848599,151.560893 83.857256,152.157164 84.2344991,152.797092 L87.4664179,149.80828 Z M85.5284835,154.409155 C86.2515328,155.093802 86.9350324,155.441982 87.5789824,155.454759 C88.2239464,155.467537 88.8283466,155.213056 89.3921831,154.692384 C89.6933692,154.413414 89.9215404,154.134444 90.0746686,153.857603 C90.228811,153.580763 90.3515164,153.315635 90.443799,153.065414 C90.5340534,152.813063 90.6192373,152.584137 90.6983367,152.376507 C90.776422,152.168877 90.8940569,151.99319 91.0502274,151.848381 C91.2560886,151.656722 91.4791894,151.591771 91.7175015,151.651398 L93.2893478,151.930368 C93.2923901,152.500021 93.2234317,153.029212 93.0824726,153.517941 C92.9425276,154.006671 92.7579624,154.459199 92.5267489,154.875524 C92.2965494,155.29185 92.0359272,155.673037 91.7469103,156.019088 C91.4568793,156.364074 91.163806,156.673922 90.8676905,156.947568 C90.2602479,157.509767 89.6010866,157.934611 88.8942628,158.21784 C88.187439,158.504263 87.4613474,158.625647 86.7190303,158.584121 C85.9756992,158.542595 85.2333821,158.325382 84.4900509,157.929287 C83.7467197,157.534257 83.0368536,156.931597 82.3584245,156.1245 C81.8473209,155.514387 81.4619651,154.844646 81.203371,154.117407 C80.9437628,153.389104 80.8281561,152.649088 80.8545225,151.895231 C80.8829172,151.141373 81.0593696,150.401357 81.3848939,149.673054 C81.7104182,148.944751 82.2063103,148.27501 82.8695281,147.659572 C83.4445196,147.128252 84.0489198,146.735351 84.6837429,146.481936 C85.318566,146.228521 85.9574455,146.122043 86.6003813,146.16144 C87.242303,146.201901 87.8781402,146.392495 88.5058646,146.732157 C89.1335891,147.073949 89.7227779,147.571197 90.2734311,148.22816 C90.4458272,148.432596 90.5766454,148.607218 90.6679139,148.752027 C90.7591824,148.896836 90.8149575,149.027803 90.8332112,149.144928 C90.8534931,149.262053 90.8372676,149.370659 90.7865629,149.469683 C90.7358582,149.567642 90.6527024,149.671989 90.5340534,149.780596 L85.5284835,154.409155 Z" id="Fill-7"></path>
                    <path d="M98.1712043,145.320626 C98.5679222,145.296022 98.9132138,145.201707 99.2070789,145.03768 C99.5019936,144.872628 99.7580761,144.659393 99.976376,144.39695 C100.184181,144.145784 100.324816,143.875139 100.397233,143.583991 C100.4686,143.292844 100.458105,142.982218 100.361549,142.650063 C100.264994,142.316883 100.073981,141.965251 99.7874626,141.59414 C99.5019936,141.223029 99.1010776,140.833465 98.5868136,140.427498 C98.0966884,140.03896 97.6537917,139.747812 97.2612718,139.55303 C96.8677024,139.359273 96.5161137,139.242404 96.2054562,139.204473 C95.8947988,139.167566 95.621924,139.200372 95.3878814,139.304939 C95.1517397,139.409506 94.9449846,139.570458 94.7665665,139.786768 C94.4359682,140.183508 94.2407577,140.569997 94.1767371,140.945208 C94.113766,141.321445 94.1284593,141.738688 94.2218664,142.200014 L98.1712043,145.320626 Z M92.4061995,141.039524 C92.3127924,140.37624 92.3295847,139.719107 92.4565764,139.070175 C92.5825186,138.421244 92.9047208,137.783589 93.4231829,137.158237 C93.8157028,136.684609 94.285887,136.330926 94.8347852,136.099238 C95.3857823,135.865499 95.9840078,135.764008 96.6326102,135.792713 C97.2812126,135.822442 97.9707462,135.987495 98.697013,136.285818 C99.4243293,136.585168 100.162141,137.030091 100.909398,137.621613 C101.609427,138.174178 102.177216,138.780053 102.612766,139.439236 C103.047267,140.096369 103.342182,140.769904 103.495411,141.455742 C103.64969,142.142605 103.651789,142.821266 103.501708,143.492751 C103.352677,144.162186 103.038871,144.786514 102.56029,145.365734 C102.16777,145.839362 101.768953,146.181768 101.365938,146.395003 C100.960824,146.607213 100.53367,146.752786 100.082377,146.831724 L103.654938,149.655038 L101.403721,152.372759 L89.1432467,142.682868 L90.5391062,140.999542 C90.8193277,140.661237 91.1583221,140.56077 91.5560896,140.702243 L92.4061995,141.039524 Z" id="Fill-9"></path>
                    <path d="M102.717728,122.312827 L112.983882,128.075388 L111.29341,131.200526 L106.065789,128.266916 C105.894172,128.170629 105.713307,128.055503 105.522166,127.922585 C105.333079,127.789667 105.14091,127.64733 104.947713,127.494527 C105.216956,127.85665 105.42454,128.195747 105.570465,128.514959 C105.576631,128.535891 105.625958,128.635318 105.718445,128.814286 C105.810933,128.993254 105.93014,129.222458 106.076065,129.500853 C106.220963,129.780294 106.384358,130.096367 106.564196,130.44593 C106.745061,130.79654 106.929009,131.156569 107.11604,131.524971 C107.554844,132.384227 108.051195,133.351282 108.606123,134.425091 C108.65956,134.533937 108.709915,134.652202 108.757186,134.77884 C108.804458,134.906525 108.836315,135.036303 108.85584,135.169221 C108.87331,135.302139 108.875365,135.435056 108.859951,135.565881 C108.844536,135.697752 108.804458,135.82439 108.738689,135.944749 L107.702824,137.861068 L97.4356418,132.099553 L99.1271424,128.973368 L104.354763,131.906979 C104.519186,132.000126 104.699023,132.113158 104.89222,132.248169 C105.086445,132.38318 105.279642,132.527611 105.472839,132.679367 C105.203596,132.318291 104.996012,131.977101 104.849059,131.659982 C104.839811,131.64533 104.790484,131.54695 104.700051,131.363795 C104.608591,131.182734 104.49144,130.951436 104.344487,130.671995 C104.198561,130.3936 104.035166,130.078574 103.855328,129.727965 C103.676519,129.377355 103.491543,129.017325 103.303484,128.648923 C102.865708,127.788621 102.368329,126.823659 101.813402,125.748804 C101.760992,125.641004 101.711665,125.521692 101.663366,125.395054 C101.616094,125.267369 101.583209,125.137591 101.564712,125.004674 C101.546214,124.871756 101.545187,124.738838 101.560601,124.606967 C101.576016,124.476142 101.616094,124.349504 101.680836,124.229145 L102.717728,122.312827 Z" id="Fill-11"></path>
                    <path d="M112.324503,109.229488 L108.21639,108.129385 C107.964521,108.062649 107.69437,107.980272 107.406955,107.883296 C107.120555,107.787363 106.822983,107.678917 106.51424,107.556915 L111.268276,113.39111 L112.324503,109.229488 Z M113.50768,104.567346 L115.389591,105.070995 C115.555134,105.115833 115.685131,105.210724 115.777551,105.358794 C115.870987,105.506865 115.890283,105.687261 115.836456,105.902068 L115.582556,106.901024 L119.203179,107.86974 L118.442492,110.866609 L114.821869,109.897892 L113.170499,116.401534 C113.115657,116.616341 113.001909,116.793609 112.828241,116.932295 C112.654573,117.072024 112.464656,117.137717 112.259504,117.129375 L110.514699,117.041784 L102.618389,106.940649 L103.453214,103.654938 L113.085189,106.23262 L113.50768,104.567346 Z" id="Fill-13"></path>
                    <polygon id="Fill-15" points="113.399734 95.362543 112.983882 79.8703669 115.676524 79.8143023 116.093531 95.3054591"></polygon>
                    <path d="M108.70987,71.5219073 C108.139656,71.2164664 107.621089,70.791031 107.153113,70.2446093 C106.686191,69.6991793 106.316238,68.9871452 106.042198,68.1075153 C105.830344,67.4232485 105.724944,66.789558 105.728106,66.2044604 C105.732322,65.6203544 105.820858,65.1017 105.993714,64.6484972 C106.167624,64.1952945 106.413205,63.8164685 106.733621,63.5130111 C107.055091,63.208562 107.425045,62.9983235 107.848753,62.8822957 C108.063768,62.8227942 108.292486,62.7900684 108.537014,62.7831266 C108.780488,62.7771764 109.032394,62.8089105 109.290624,62.8773372 C109.549907,62.9467556 109.806029,63.0598083 110.060043,63.2164955 C110.314057,63.3741744 110.560693,63.5873879 110.795735,63.8561362 C110.833679,63.5576372 110.901135,63.2740136 111.003373,63.003282 C111.103503,62.7325503 111.24263,62.486611 111.418648,62.2634805 C111.59572,62.04035 111.809682,61.8449869 112.06475,61.6763995 C112.31771,61.5088037 112.611776,61.3779005 112.945893,61.2866649 C113.523485,61.1279944 114.075781,61.1141107 114.599618,61.2460056 C115.12451,61.3779005 115.603026,61.6099562 116.036219,61.9421726 C116.469413,62.2733974 116.846745,62.6829658 117.167161,63.1708777 C117.487577,63.6587897 117.733158,64.174469 117.901798,64.7189073 C117.98928,64.9985642 118.058844,65.3218554 118.112598,65.6897727 C118.167406,66.0576901 118.180054,66.449408 118.15265,66.8659182 C118.125246,67.2834201 118.04198,67.7148057 117.903906,68.1620583 C117.764778,68.6093109 117.543438,69.0575552 117.239887,69.5048079 L115.711588,68.9018598 C115.469168,68.8245079 115.30896,68.6569121 115.228856,68.3980807 C115.167724,68.2027176 115.165616,68.0162797 115.223586,67.8367837 C115.280502,67.6582793 115.342688,67.4648996 115.411198,67.2566445 C115.479708,67.0483894 115.528192,66.815342 115.55665,66.5575023 C115.584054,66.2996627 115.542948,65.9932302 115.433332,65.6372131 C115.2668,65.0997166 115.015948,64.7427079 114.682884,64.5642035 C114.350874,64.3876825 113.994623,64.35099 113.616237,64.4551175 C113.237851,64.5592451 112.989107,64.7734503 112.867897,65.0977332 C112.747741,65.4230079 112.788847,65.9138949 112.992269,66.5694026 L113.373817,67.7951326 L111.22682,68.3851888 L110.845273,67.1604504 C110.665039,66.5813029 110.429997,66.1727262 110.138039,65.9347204 C109.846081,65.6967146 109.52672,65.6253128 109.177846,65.7215069 C108.843728,65.8137341 108.628712,66.013064 108.53069,66.3204882 C108.432668,66.6269207 108.459018,67.0216137 108.607632,67.5035755 C108.713032,67.838767 108.837404,68.1114821 108.98391,68.3207289 C109.128308,68.5309673 109.270598,68.7074883 109.407618,68.8522752 C109.545691,68.9960704 109.671117,69.1220151 109.786003,69.2311011 C109.899835,69.3401872 109.977831,69.4601818 110.018937,69.5930683 C110.064259,69.7398386 110.073745,69.8737169 110.047395,69.9947032 C110.019991,70.1156895 109.928293,70.2614681 109.773355,70.4330306 L108.70987,71.5219073 Z" id="Fill-17"></path>
                    <path d="M108.413533,52.9434581 C108.750623,53.5870501 109.061865,54.1002273 109.346183,54.4851102 C109.631578,54.8689328 109.89651,55.1552093 110.140981,55.3439398 C110.386528,55.5316099 110.613767,55.636578 110.822698,55.6567234 C111.033783,55.6768688 111.234098,55.6429397 111.427951,55.5549362 C111.808119,55.38211 112.026742,55.1583902 112.084898,54.8837768 C112.143054,54.6081031 112.079513,54.2730535 111.893199,53.8775678 C111.695037,53.4545147 111.445182,53.1184049 111.145787,52.8692383 C110.846391,52.6200717 110.452223,52.4101355 109.962205,52.2383696 L108.413533,52.9434581 Z M106.122834,61.1564134 C105.216032,60.7630483 104.428773,60.2297257 103.758902,59.5532649 C103.089032,58.8768041 102.53655,58.0762901 102.102534,57.151723 C101.791292,56.4890458 101.618978,55.8412127 101.587746,55.2082235 C101.556514,54.5762946 101.649133,53.9857167 101.865602,53.4375502 C102.082072,52.8893836 102.413776,52.393171 102.858562,51.9510328 C103.303347,51.5088946 103.845059,51.1430969 104.482621,50.8525792 L111.450567,47.6812715 L112.157054,49.1847534 C112.301367,49.4954164 112.369216,49.7488242 112.357369,49.9470972 C112.3466,50.1453702 112.229211,50.3584871 112.00628,50.5885686 L111.503338,51.1006855 C111.868428,51.2682103 112.20121,51.4389159 112.499528,51.6106818 C112.797847,51.783508 113.073549,51.9764796 113.326635,52.1917172 C113.579722,52.4058944 113.809115,52.6529404 114.013737,52.9328553 C114.219437,53.2117098 114.408983,53.5382771 114.584527,53.9125571 C114.820382,54.4140712 114.967926,54.8986207 115.028236,55.3683263 C115.087469,55.8380318 115.05516,56.2748686 114.931309,56.6777763 C114.807459,57.0817443 114.589912,57.4486023 114.27867,57.7783505 C113.968505,58.1080986 113.56249,58.3869532 113.060626,58.6149141 C112.658919,58.7972828 112.205518,58.8842261 111.701499,58.8736233 C111.196404,58.8640807 110.659,58.6933751 110.090364,58.3604461 C109.520651,58.0285774 108.928321,57.5026768 108.310145,56.7806238 C107.693046,56.0596311 107.075946,55.0778086 106.45777,53.8340962 L105.983906,54.0493337 C105.331267,54.3462131 104.922022,54.6929257 104.756169,55.0894717 C104.58924,55.487078 104.621549,55.9281559 104.849865,56.4158863 C105.031872,56.80395 105.224648,57.1018897 105.427117,57.3097052 C105.628509,57.5175208 105.828824,57.6935278 106.026985,57.8398469 C106.226223,57.9840455 106.41146,58.1293043 106.583774,58.2735028 C106.756088,58.4177014 106.901478,58.6170347 107.021021,58.8715027 C107.12764,59.0973431 107.158872,59.3136409 107.117948,59.5214564 C107.075946,59.7282117 106.999482,59.9180024 106.887478,60.088708 L106.122834,61.1564134 Z" id="Fill-19"></path>
                    <polygon id="Fill-21" points="102.894059 34.2061296 104.854538 37.1305115 97.3062345 42.3800677 99.329922 45.398952 106.877206 40.1504342 108.837685 43.0748161 99.2330705 49.7543703 93.2894442 40.8856837"></polygon>
                    <path d="M91.57011,22.8040864 L94.1162902,25.3374268 L87.3800317,31.843387 L88.9239128,33.3796613 C90.029421,32.4514304 91.022144,31.701545 91.9031457,31.130005 C92.7862755,30.5574221 93.5779002,30.1225094 94.281212,29.824224 C94.9834598,29.5269815 95.6101627,29.348636 96.1591928,29.2912734 C96.7082228,29.2328678 97.2008603,29.2589417 97.6360411,29.370538 C98.0701579,29.4821343 98.4617142,29.6583939 98.807518,29.8982738 C99.1533219,30.1391967 99.4767814,30.4093223 99.7778968,30.7086507 C100.155621,31.0841149 100.390768,31.3813574 100.482273,31.5982923 C100.574842,31.8152272 100.565265,31.9768854 100.454608,32.0843098 L98.9032791,33.5819948 L98.3702092,33.0511302 C98.1946473,32.8769565 97.9978051,32.7278138 97.7807467,32.6047449 C97.5647523,32.4816761 97.2976853,32.4170128 96.9795458,32.4117981 C96.6624703,32.4076262 96.2815541,32.4795902 95.8357332,32.6308188 C95.3909763,32.7820475 94.8547143,33.0438295 94.2280114,33.4182507 C93.6023725,33.792672 92.8703324,34.2953768 92.0329551,34.9274082 C91.1934499,35.5594396 90.2220071,36.3552151 89.1164989,37.3157777 L82.9239504,31.15295 L91.57011,22.8040864 Z" id="Fill-23"></path>
                    <path d="M79.8481217,19.595702 C80.4319406,19.9967338 80.9329411,20.2958993 81.3511232,20.4942706 C81.7693053,20.6926419 82.1240954,20.8148816 82.4165161,20.8599172 C82.7079144,20.9049529 82.9451228,20.8856519 83.1281413,20.800942 C83.3111599,20.7151598 83.4604376,20.5864865 83.5780194,20.4138498 C83.8101155,20.0750101 83.8847544,19.7704833 83.8019359,19.5002693 C83.7191175,19.2300554 83.5074703,18.9673474 83.165972,18.7100008 C82.8009573,18.4344255 82.4349202,18.2617888 82.0688831,18.1888739 C81.702846,18.1170313 81.2775068,18.1256096 80.791843,18.2156809 L79.8481217,19.595702 Z M81.8592809,27.9465994 C80.9247615,28.0452489 80.0188708,27.9626836 79.144676,27.6967587 C78.2694588,27.4308339 77.4341171,26.9965615 76.6345612,26.3960861 C76.0630117,25.9661028 75.6131336,25.4803611 75.2859496,24.9388609 C74.9597881,24.3984331 74.7563205,23.8333428 74.6735021,23.2446625 C74.5917061,22.6559821 74.6295367,22.056579 74.786994,21.4496699 C74.9444513,20.8427608 75.2174455,20.2540804 75.6069989,19.6847011 L79.8542564,13.4751419 L81.1517454,14.4509145 C81.4196274,14.6525027 81.5965112,14.8433681 81.6813746,15.0235107 C81.7662379,15.202581 81.7713502,15.4481326 81.6967113,15.7601653 L81.5239173,16.458218 C81.9052911,16.4260497 82.2600813,16.4121101 82.5893102,16.4174715 C82.9175166,16.4228329 83.2375435,16.458218 83.5483683,16.5225547 C83.8602156,16.5868913 84.1669506,16.6919745 84.4685733,16.836732 C84.7701961,16.9814894 85.0830658,17.176644 85.40616,17.4189787 C85.8386564,17.7438788 86.1914016,18.0988026 86.4633733,18.482678 C86.7353451,18.8676256 86.9173412,19.2665128 87.0062943,19.6825565 C87.0962699,20.0986002 87.0911577,20.5275112 86.9909576,20.9703618 C86.8917799,21.4132124 86.6883123,21.8582076 86.3825998,22.3053473 C86.1372118,22.6624158 85.8038931,22.9615812 85.3826437,23.2006991 C84.9603718,23.439817 84.4348325,23.5524061 83.8070482,23.5395388 C83.1802863,23.5277437 82.43901,23.355107 81.5862867,23.022701 C80.7335634,22.6913673 79.7561012,22.1305661 78.6549225,21.3392253 L78.3665916,21.7617026 C77.9688585,22.3428771 77.795042,22.848992 77.847187,23.2800476 C77.8983095,23.7100309 78.133473,24.0842558 78.5547224,24.3995053 C78.890086,24.6525628 79.1896638,24.8209104 79.4555008,24.9034758 C79.7213379,24.9881857 79.9708157,25.0450164 80.2039343,25.0750402 C80.4370529,25.105064 80.6589245,25.1415214 80.8695492,25.1833402 C81.0811964,25.2262313 81.2959109,25.3302422 81.5157377,25.495373 C81.7100032,25.642275 81.8398543,25.8170562 81.9042687,26.0197167 C81.9676606,26.2223771 81.9952667,26.4271821 81.9840198,26.6319871 L81.8592809,27.9465994 Z" id="Fill-25"></path>
                    <polygon id="Fill-27" points="62.3372517 14.6140418 65.9830089 16.326907 70.3192017 8.29239504 73.595006 9.83166586 69.2588133 17.8661779 72.9034951 19.5790431 71.7226569 21.767537 61.1564134 16.8025357"></polygon>
                    <path d="M49.7543703,13.3644554 L53.3308636,2.07309876 L56.8248554,3.10617301 L55.0033939,8.8553658 C54.9444642,9.0437621 54.86732,9.24561529 54.7762469,9.46092535 C54.6830309,9.67520027 54.5812434,9.89258063 54.4687413,10.1141016 C54.774104,9.77560929 55.0708951,9.50233114 55.3580432,9.29323194 C55.3784007,9.28288049 55.4673308,9.21456095 55.6259051,9.08723817 C55.7866223,8.9599154 55.9901975,8.79532741 56.2387734,8.59554452 C56.4873493,8.39472648 56.7680687,8.16906497 57.0809315,7.92063028 C57.3937943,7.67219559 57.7152287,7.41755003 58.0430918,7.15772875 C58.8102485,6.55113405 59.6727641,5.86483322 60.6295672,5.0998614 C60.7270689,5.02533099 60.8352852,4.95287088 60.952073,4.88041076 C61.0710037,4.8069155 61.1931488,4.7489474 61.322794,4.70340104 C61.4524392,4.65785468 61.5842273,4.62990578 61.7192298,4.61851919 C61.8542322,4.6071326 61.9903061,4.62058948 62.1253085,4.66096011 L64.2660616,5.29343343 L60.6906397,16.5847901 L57.1966479,15.552751 L59.0181094,9.8035582 C59.0748962,9.62137276 59.150969,9.42158986 59.2441849,9.20317436 C59.3374009,8.98579401 59.4402599,8.76530822 59.552762,8.54378729 C59.2473993,8.88227955 58.9516797,9.15659286 58.6623887,9.36569206 C58.6516742,9.37707865 58.5638155,9.44643333 58.3998839,9.57272096 C58.2370239,9.6990086 58.0313058,9.86359658 57.7827299,10.0633795 C57.534154,10.2641975 57.2534346,10.4888239 56.9405718,10.7372586 C56.627709,10.9867284 56.3062746,11.2403388 55.9784115,11.5011952 C55.2112548,12.1077899 54.3487392,12.7930556 53.3919361,13.5580274 C53.2944344,13.6325579 53.1862181,13.7060531 53.0694303,13.7785132 C52.951571,13.8509734 52.8283545,13.9099766 52.6987093,13.9544878 C52.5690641,14.0000342 52.437276,14.0290182 52.3022735,14.0404048 C52.1672711,14.0517914 52.0311972,14.0372994 51.8961948,13.9979639 L49.7543703,13.3644554 Z" id="Fill-29"></path>
                    <path d="M41.6144163,11.1630472 C41.1404304,11.5866342 40.5686538,11.9183207 39.9010821,12.1570506 C39.2325126,12.3968367 38.4382121,12.4834555 37.5191785,12.4169069 C36.8027115,12.3651469 36.1700651,12.2299371 35.6192437,12.0123338 C35.0684222,11.7936742 34.6084065,11.5190293 34.2362029,11.1894554 C33.8649971,10.8598815 33.5885885,10.4891108 33.4049814,10.0760871 C33.2243678,9.66306339 33.1465343,9.23630743 33.1754724,8.79581923 C33.1894425,8.57187798 33.2343465,8.34371143 33.3071906,8.1123759 C33.3800347,7.88104037 33.4917956,7.6560428 33.6414753,7.43738318 C33.7911551,7.2197799 33.9827452,7.02013417 34.2142498,6.83844599 C34.4457545,6.65675781 34.7271524,6.50464677 35.0584436,6.38105656 C34.7880222,6.23739613 34.5425474,6.06838387 34.3190256,5.87401977 C34.0974996,5.67859935 33.909901,5.45782708 33.7582255,5.20959033 C33.6055522,4.96135357 33.4907977,4.68776497 33.41496,4.38671188 C33.3391223,4.08671512 33.3121799,3.76242285 33.3341329,3.41489138 C33.3720518,2.81172888 33.5396931,2.2888472 33.836059,1.84413369 C34.1334228,1.39942018 34.50862,1.03498749 34.9636464,0.748722976 C35.4186728,0.463514786 35.9285818,0.259643747 36.4933734,0.137109858 C37.0601607,0.0145759694 37.6269479,-0.0255644425 38.195731,0.015632296 C38.4881054,0.0367588286 38.816403,0.08957516 39.1816215,0.17408129 C39.5468401,0.25858742 39.9210394,0.390628249 40.3052175,0.569147449 C40.6903933,0.748722976 41.0705799,0.985340141 41.4477728,1.2811116 C41.8249658,1.57582673 42.1752164,1.94871003 42.4985246,2.39870517 L41.4288134,3.61453712 C41.2771379,3.81312652 41.0665884,3.90291429 40.796167,3.88284408 C40.5926026,3.86805551 40.4149826,3.80150693 40.264305,3.68214202 C40.1146252,3.56277711 39.9519733,3.43284894 39.7783448,3.29130117 C39.6037184,3.15080973 39.4001539,3.01982523 39.1656557,2.89834766 C38.9311574,2.7768701 38.6288043,2.70187091 38.2566007,2.67546275 C37.692807,2.63426601 37.2737037,2.73778602 36.9972952,2.98602277 C36.7218844,3.23425953 36.570209,3.55538283 36.5452623,3.94939266 C36.5203157,4.34340249 36.6410574,4.6571315 36.9074873,4.88952336 C37.175913,5.12297154 37.6518946,5.26346298 38.3384256,5.31311034 L39.6206821,5.40606708 L39.4759917,7.64231055 L38.1947331,7.55041013 C37.5890291,7.50710074 37.1260197,7.57787463 36.806703,7.76484444 C36.4853904,7.95075793 36.3137577,8.22645918 36.2908068,8.58983554 C36.2688537,8.937367 36.3866018,9.21412457 36.6450488,9.41905194 C36.902498,9.62292298 37.2836824,9.74440054 37.7866063,9.78031565 C38.1378548,9.80566748 38.4352185,9.78876626 38.6816912,9.72855564 C38.9281638,9.66834502 39.1407091,9.60074012 39.3223205,9.5246846 C39.5039319,9.44757276 39.6635903,9.37679887 39.8042892,9.30919397 C39.9439903,9.24158906 40.0826936,9.21201192 40.2213968,9.22257519 C40.375068,9.23313845 40.5047904,9.27327886 40.6095663,9.34405275 C40.7163378,9.41377031 40.8231094,9.55320542 40.9338724,9.76341442 L41.6144163,11.1630472 Z" id="Fill-31"></path>
                    <path d="M23.4257641,5.27098033 C24.1150936,5.18572773 24.6783509,5.08072147 25.1175697,4.95388224 C25.5567884,4.827043 25.9024699,4.68564844 26.1515638,4.52865889 C26.4006578,4.37062968 26.5694317,4.20116414 26.6568687,4.01818295 C26.7443058,3.83520175 26.7798906,3.64078423 26.7636233,3.43597006 C26.7341387,3.03257969 26.6050165,2.7581079 26.3762567,2.61151501 C26.1485137,2.46596179 25.8262166,2.40878017 25.4093655,2.44204948 C24.9650632,2.47635845 24.5797301,2.5876027 24.257433,2.77370289 C23.9351359,2.95980308 23.6158889,3.24467153 23.3007088,3.62934791 L23.4257641,5.27098033 Z M30.053697,10.1501323 C29.4030026,10.8363118 28.661821,11.3665414 27.834219,11.7418608 C27.006617,12.1171801 26.1068286,12.3427876 25.1328203,12.4197229 C24.4333238,12.4748252 23.7948299,12.4093262 23.2153052,12.2221864 C22.6378139,12.0340069 22.1365758,11.7480988 21.7156578,11.3655017 C21.2937232,10.981865 20.9571921,10.5129757 20.7060647,9.95987344 C20.4549374,9.40573153 20.3044643,8.79024933 20.2526121,8.11446651 L19.6944382,0.725561111 L21.2774558,0.600801206 C21.6048364,0.574809559 21.8549471,0.600801206 22.0298212,0.678776146 C22.2036787,0.756751087 22.3572019,0.935573618 22.4903909,1.21628341 L22.7852368,1.84632093 C23.0566984,1.57184914 23.3190096,1.32960699 23.5721704,1.11855481 C23.8253312,0.90750264 24.0886591,0.723481779 24.3652042,0.568571563 C24.6417494,0.412621682 24.9386287,0.289941108 25.2578757,0.200529843 C25.5761059,0.110078911 25.9319544,0.0497782902 26.3274547,0.017548648 C26.8541105,-0.0240379871 27.3400979,0.0081916551 27.7803333,0.115277241 C28.2226022,0.222362826 28.6048852,0.400145691 28.9261656,0.649665502 C29.2484627,0.899185313 29.5056903,1.22148173 29.6998819,1.6155151 C29.8940736,2.0085088 30.0120119,2.47219979 30.0526803,3.00346905 C30.0841983,3.42973206 30.0130286,3.86951073 29.8381545,4.32280505 C29.6632804,4.77609937 29.3318329,5.20444171 28.8468622,5.60575274 C28.3608748,6.00706377 27.6918796,6.36366917 26.8408932,6.6766086 C25.9888902,6.98746869 24.9030439,7.21099686 23.5823375,7.34615342 L23.6199558,7.84831204 C23.671808,8.53968985 23.8497322,9.02833281 24.1516951,9.31424093 C24.4546747,9.60014905 24.8613588,9.72282962 25.3737806,9.68228265 C25.7824981,9.65005301 26.1149623,9.57831606 26.3671064,9.46603215 C26.6212839,9.3547879 26.8449601,9.23418666 27.0411851,9.10318876 C27.2363935,8.97323052 27.4285517,8.85470861 27.6135929,8.74866269 C27.8006675,8.64157711 28.0273939,8.57815749 28.2947886,8.55736417 C28.5326988,8.53865018 28.7390909,8.58335582 28.9109149,8.69148107 C29.0837556,8.80064599 29.2281285,8.93372322 29.3450501,9.09383176 L30.053697,10.1501323 Z" id="Fill-33"></path>
                    <path d="M13.3670352,14.0549469 C13.5099394,14.8585681 13.5109902,15.5975765 13.3712383,16.2729817 C13.2304356,16.9473774 12.9772008,17.5511028 12.6115341,18.0861772 C12.2469182,18.6212516 11.7761748,19.0816175 11.2014055,19.4672749 C10.627687,19.8539419 9.97411031,20.1608525 9.24172609,20.3900259 C8.44944818,20.6383812 7.70970859,20.7504439 7.02145657,20.7282333 C6.3342553,20.7060227 5.71535386,20.5778067 5.16580301,20.344595 C4.61730292,20.1123929 4.15076261,19.7883196 3.76828362,19.3754037 C3.38475386,18.9614782 3.10209769,18.4869783 2.92136586,17.9519039 C2.75639552,17.4662986 2.66182654,17.0230955 2.63976045,16.6212849 C2.61769435,16.2194743 2.66182654,15.8519892 2.77110625,15.5178201 C2.88038596,15.183651 3.05271166,14.8767404 3.28598182,14.5980979 C3.51925197,14.3184458 3.80506045,14.0549469 4.14340724,13.8096203 C2.16796631,13.7651991 0.887081998,12.8808119 0.301805082,11.156459 C0.0265042708,10.3397133 -0.060709345,9.58051342 0.0412150012,8.87986883 C0.144190114,8.17720509 0.385866399,7.54521155 0.766243856,6.98287864 C1.14767208,6.41953616 1.64468461,5.93191175 2.25833222,5.5169767 C2.87197983,5.10406079 3.54762266,4.78099701 4.28736225,4.54980448 C5.0502187,4.31154494 5.75528299,4.17828112 6.40150436,4.15102262 C7.04772573,4.12477368 7.6592718,4.20553963 8.23404106,4.39533961 C8.80881031,4.58614916 9.35941193,4.88599274 9.88479516,5.29890864 C10.4091276,5.71081497 10.9208509,6.23579363 11.4199649,6.87384461 L10.1044053,7.93894554 C9.75765242,8.21052104 9.40459489,8.36397634 9.04523276,8.39931144 C8.6837691,8.43464655 8.38640219,8.34782315 8.15418281,8.14086041 C7.62669804,7.65929345 7.13283781,7.34430626 6.67365287,7.1969084 C6.21446793,7.04850098 5.73426766,7.0515297 5.23725512,7.20801372 C4.8558269,7.32613392 4.54480003,7.49271369 4.30417451,7.70371472 C4.06354899,7.91471576 3.88386793,8.14590828 3.76197902,8.39830187 C3.64114088,8.65069545 3.57494259,8.91520393 3.56338416,9.19081773 C3.55077496,9.4674411 3.58755179,9.73194957 3.67371464,9.98535273 C3.78614665,10.3164931 3.91013709,10.606241 4.0477875,10.8556058 C4.1854379,11.1049707 4.39559119,11.2897228 4.67929814,11.4108717 C4.96405585,11.5320206 5.3444333,11.5744227 5.82253204,11.5380781 C6.30063078,11.5017334 6.93529372,11.3593834 7.72757162,11.1120377 L8.4925296,13.3724746 C7.82634367,13.580447 7.30306198,13.798515 6.92688759,14.0256692 C6.54966243,14.2518139 6.27856468,14.4860351 6.11464511,14.728333 C5.94757325,14.9716404 5.87191806,15.2270627 5.88137496,15.4966191 C5.89188263,15.7661754 5.94652248,16.0488562 6.0463453,16.3446615 C6.25229552,16.9493965 6.56122086,17.3683699 6.97732438,17.600572 C7.39237713,17.8327741 7.91145575,17.851956 8.5335095,17.6571082 C9.03892816,17.498605 9.42245792,17.2361157 9.683048,16.8706497 C9.94468885,16.5051838 10.0770854,16.1114498 10.079187,15.6904573 C10.1023038,15.2543212 10.2168374,14.9352957 10.4227876,14.7303521 C10.6297886,14.5254085 10.9754907,14.3860873 11.4609448,14.3123884 L13.3670352,14.0549469 Z" id="Fill-35"></path>
                </g>
                <g id="Group-2" transform="translate(71.000000, 62.000000)">
                    <g id="4">
                        <use fill="black" fill-opacity="1" filter="url(#filter-2)" xlink:href="#path-1"></use>
                        <use fill="#82BCFF" fill-rule="evenodd" xlink:href="#path-1"></use>
                    </g>
                    <path d="M83.368,68.8 C85.6720115,68.8 87.5919923,69.5679923 89.128,71.104 C90.6640077,72.6400077 91.432,74.5599885 91.432,76.864 C91.432,79.072011 90.6640077,80.9199926 89.128,82.408 C87.5919923,83.8960074 85.6720115,84.64 83.368,84.64 L77.32,84.64 L77.32,103.216 C77.32,105.712012 76.4800084,107.799992 74.8,109.48 C73.1199916,111.160008 71.0320125,112 68.536,112 C66.135988,112 64.1200082,111.160008 62.488,109.48 C60.8559918,107.799992 60.04,105.712012 60.04,103.216 L60.04,84.64 L22.6,84.64 C20.4879894,84.64 18.5200091,83.8000084 16.696,82.12 C14.8719909,80.4399916 13.96,78.4480115 13.96,76.144 C13.96,74.0319894 14.6799928,72.1120086 16.12,70.384 L61.624,14.656 C63.4480091,12.3519885 65.8479851,11.2 68.824,11.2 C71.224012,11.2 73.2399918,12.0399916 74.872,13.72 C76.5040082,15.4000084 77.32,17.4879875 77.32,19.984 L77.32,68.8 L83.368,68.8 Z M36.712,68.8 L60.04,68.8 L60.04,40 L36.712,68.8 Z" id="4" fill="#FFCB00"></path>
                    <path d="M79.368,65.8 C81.6720115,65.8 83.5919923,66.5679923 85.128,68.104 C86.6640077,69.6400077 87.432,71.5599885 87.432,73.864 C87.432,76.072011 86.6640077,77.9199926 85.128,79.408 C83.5919923,80.8960074 81.6720115,81.64 79.368,81.64 L73.32,81.64 L73.32,100.216 C73.32,102.712012 72.4800084,104.799992 70.8,106.48 C69.1199916,108.160008 67.0320125,109 64.536,109 C62.135988,109 60.1200082,108.160008 58.488,106.48 C56.8559918,104.799992 56.04,102.712012 56.04,100.216 L56.04,81.64 L18.6,81.64 C16.4879894,81.64 14.5200091,80.8000084 12.696,79.12 C10.8719909,77.4399916 9.96,75.4480115 9.96,73.144 C9.96,71.0319894 10.6799928,69.1120086 12.12,67.384 L57.624,11.656 C59.4480091,9.35198848 61.8479851,8.2 64.824,8.2 C67.224012,8.2 69.2399918,9.0399916 70.872,10.72 C72.5040082,12.4000084 73.32,14.4879875 73.32,16.984 L73.32,65.8 L79.368,65.8 Z M32.712,65.8 L56.04,65.8 L56.04,37 L32.712,65.8 Z" id="4" fill="#FF6DB6"></path>
                    <path d="M75.368,61.8 C77.6720115,61.8 79.5919923,62.5679923 81.128,64.104 C82.6640077,65.6400077 83.432,67.5599885 83.432,69.864 C83.432,72.072011 82.6640077,73.9199926 81.128,75.408 C79.5919923,76.8960074 77.6720115,77.64 75.368,77.64 L69.32,77.64 L69.32,96.216 C69.32,98.7120125 68.4800084,100.799992 66.8,102.48 C65.1199916,104.160008 63.0320125,105 60.536,105 C58.135988,105 56.1200082,104.160008 54.488,102.48 C52.8559918,100.799992 52.04,98.7120125 52.04,96.216 L52.04,77.64 L14.6,77.64 C12.4879894,77.64 10.5200091,76.8000084 8.696,75.12 C6.87199088,73.4399916 5.96,71.4480115 5.96,69.144 C5.96,67.0319894 6.6799928,65.1120086 8.12,63.384 L53.624,7.656 C55.4480091,5.35198848 57.8479851,4.2 60.824,4.2 C63.224012,4.2 65.2399918,5.0399916 66.872,6.72 C68.5040082,8.4000084 69.32,10.4879875 69.32,12.984 L69.32,61.8 L75.368,61.8 Z M28.712,61.8 L52.04,61.8 L52.04,33 L28.712,61.8 Z" id="4" fill="#B8E986"></path>
                    <path d="M70.368,57.8 C72.6720115,57.8 74.5919923,58.5679923 76.128,60.104 C77.6640077,61.6400077 78.432,63.5599885 78.432,65.864 C78.432,68.072011 77.6640077,69.9199926 76.128,71.408 C74.5919923,72.8960074 72.6720115,73.64 70.368,73.64 L64.32,73.64 L64.32,92.216 C64.32,94.7120125 63.4800084,96.7999916 61.8,98.48 C60.1199916,100.160008 58.0320125,101 55.536,101 C53.135988,101 51.1200082,100.160008 49.488,98.48 C47.8559918,96.7999916 47.04,94.7120125 47.04,92.216 L47.04,73.64 L9.6,73.64 C7.48798944,73.64 5.52000912,72.8000084 3.696,71.12 C1.87199088,69.4399916 0.96,67.4480115 0.96,65.144 C0.96,63.0319894 1.6799928,61.1120086 3.12,59.384 L48.624,3.656 C50.4480091,1.35198848 52.8479851,0.2 55.824,0.2 C58.224012,0.2 60.2399918,1.0399916 61.872,2.72 C63.5040082,4.4000084 64.32,6.48798752 64.32,8.984 L64.32,57.8 L70.368,57.8 Z M23.712,57.8 L47.04,57.8 L47.04,29 L23.712,57.8 Z" id="4" fill="#FFFFFF"></path>
                </g>
                <g id="Group-3" transform="translate(163.117385, 66.431478) rotate(69.000000) translate(-163.117385, -66.431478) translate(109.617385, 20.431478)">
                    <g id="Group-4" transform="translate(47.460978, 40.107967) rotate(-40.000000) translate(-47.460978, -40.107967) translate(-0.039022, 27.607967)" opacity="0.674720982">
                        <path d="M1.31876639,8.38608069 L0,24.258 L1.53016663,23.7156364 L1.85356261,19.4857197 L9.60247487,16.7369225 L12.6184075,19.7822031 L14.1677923,19.2320544 L2.77007212,7.87161382 L1.31876639,8.38608069 Z M2.58849323,9.62975407 L8.63361233,15.7598896 L1.95760599,18.1285132 L2.58849323,9.62975407 Z" id="Fill-1" fill="#FFFFFF"></path>
                        <polygon id="Fill-2" fill="#FFFFFF" points="24.1367384 10.2629441 20.8093384 10.8487746 22.0094821 17.3856828 20.5117876 17.6490794 17.8928103 3.39516815 19.3905048 3.13112273 20.565466 9.52530367 23.8935287 8.93947317 27.6483681 1.67725103 29.3130622 1.3840114 25.1758468 9.25996073 32.2428442 15.5834268 30.4747694 15.8948317"></polygon>
                        <polygon id="Fill-3" fill="#FFFFFF" points="49.7930403 0.735251158 48.2509451 0.759904047 48.4702977 13.9122204 39.5344957 14.0542989 39.3158058 0.90198254 37.7737107 0.926635429 38.0142696 15.4024227 50.9216128 15.1967657 50.9766166 18.5884842 52.435212 18.5644801 52.3570138 13.8499394 50.0110675 13.8869188"></polygon>
                        <polygon id="Fill-4" fill="#FFFFFF" points="61.6201879 1.3840114 63.1377633 1.65389566 60.9502016 13.4580883 72.4519651 3.30758552 73.8449536 3.55541193 71.20477 17.8021868 69.6865319 17.5329513 71.8707802 5.74887031 60.3723301 15.8786127 58.9800044 15.6307863"></polygon>
                        <g id="Group-7" transform="translate(78.000000, 7.000000)">
                            <mask id="mask-4" fill="white">
                                <use xlink:href="#path-3"></use>
                            </mask>
                            <g id="Clip-6"></g>
                            <path d="M8.148032,9.33744615 L12.268152,10.8262538 L15.020792,3.78106154 L11.043472,2.34390769 C8.404392,1.3906 6.402472,2.06994615 5.494672,4.39240769 C4.624952,6.61679231 5.508952,8.38413846 8.148032,9.33744615 Z M16.990752,3.06771538 L11.652072,16.7278692 L10.171032,16.1923692 L11.787392,12.0554846 L7.545552,10.5228692 C7.261312,10.4202154 7.004952,10.3051385 6.749272,10.1907154 L2.133432,13.2886385 L0.529992,12.7093308 L5.488552,9.44598462 C3.655272,8.09252308 3.107872,6.11333077 3.977592,3.88894615 C5.190032,0.785792308 8.080712,-0.151823077 11.470512,1.07283077 L16.990752,3.06771538 Z" id="Fill-5" fill="#FFFFFF" mask="url(#mask-4)"></path>
                        </g>
                    </g>
                    <polygon id="Star-2" fill="#FFFFFF" points="5.53902192 90.1209757 2.13983498 92 2.78902192 88.0201626 0.0390219154 85.2016261 3.83942845 84.6209757 5.53902192 81 7.23861538 84.6209757 11.0390219 85.2016261 8.28902192 88.0201626 8.93820885 92"></polygon>
                    <polygon id="Star-2-Copy" fill="#FFFFFF" points="100.539022 14.1209757 97.139835 16 97.7890219 12.0201626 95.0390219 9.20162612 98.8394284 8.62097567 100.539022 5 102.238615 8.62097567 106.039022 9.20162612 103.289022 12.0201626 103.938209 16"></polygon>
                </g>
                <path d="M60.0980852,99.7211435 L69.6380852,115.336144 L62.6630852,115.336144 L54.8780852,102.871144 L51.6380852,102.871144 L51.6380852,115.336144 L45.0230852,115.336144 L45.0230852,85.9961435 L51.6380852,85.9961435 L51.6380852,97.5161435 L54.8780852,97.5161435 L58.7030852,90.7661435 C60.9530852,86.8061435 63.1130852,85.4561435 66.4430852,85.4561435 C67.2530852,85.4561435 68.2430852,85.5461435 68.8730852,85.8611435 L67.7930852,91.8461435 C67.2980852,91.6661435 66.7580852,91.6661435 66.4880852,91.6661435 C65.1830852,91.6661435 64.4180852,92.2511435 63.2030852,94.3211435 L60.0980852,99.7211435 Z M84.9380852,115.876144 C77.0180852,115.876144 71.6180852,110.116144 71.6180852,100.531144 C71.6180852,90.9461435 77.0180852,85.4561435 84.9380852,85.4561435 C92.8580852,85.4561435 98.2580852,90.9911435 98.2580852,100.531144 C98.2580852,110.116144 92.8580852,115.876144 84.9380852,115.876144 Z M84.9380852,110.161144 C88.9430852,110.161144 91.4630852,106.426144 91.4630852,100.531144 C91.4630852,94.6811435 88.9430852,91.1711435 84.9380852,91.1711435 C80.9330852,91.1711435 78.4130852,94.6811435 78.4130852,100.531144 C78.4130852,106.426144 80.9330852,110.161144 84.9380852,110.161144 Z M103.793085,115.336144 L103.793085,85.9961435 L113.873085,85.9961435 C120.308085,85.9961435 125.528085,88.3361435 125.528085,95.4461435 C125.528085,102.331144 120.263085,105.391144 114.053085,105.391144 L110.408085,105.391144 L110.408085,115.336144 L103.793085,115.336144 Z M110.408085,100.126144 L113.648085,100.126144 C117.293085,100.126144 119.048085,98.5061435 119.048085,95.4461435 C119.048085,92.3861435 117.068085,91.2611435 113.468085,91.2611435 L110.408085,91.2611435 L110.408085,100.126144 Z M142.538085,115.876144 C134.618085,115.876144 129.218085,110.116144 129.218085,100.531144 C129.218085,90.9461435 134.618085,85.4561435 142.538085,85.4561435 C150.458085,85.4561435 155.858085,90.9911435 155.858085,100.531144 C155.858085,110.116144 150.458085,115.876144 142.538085,115.876144 Z M142.538085,110.161144 C146.543085,110.161144 149.063085,106.426144 149.063085,100.531144 C149.063085,94.6811435 146.543085,91.1711435 142.538085,91.1711435 C138.533085,91.1711435 136.013085,94.6811435 136.013085,100.531144 C136.013085,106.426144 138.533085,110.161144 142.538085,110.161144 Z M161.393085,115.336144 L161.393085,85.9961435 L181.418085,85.9961435 L181.418085,91.5761435 L168.008085,91.5761435 L168.008085,97.4711435 L172.058085,97.4711435 C178.223085,97.4711435 183.308085,99.5861435 183.308085,106.021144 C183.308085,112.726144 178.403085,115.336144 172.238085,115.336144 L161.393085,115.336144 Z M168.008085,110.206144 L171.563085,110.206144 C175.073085,110.206144 176.828085,108.946144 176.828085,106.111144 C176.828085,103.366144 174.983085,102.331144 171.518085,102.331144 L168.008085,102.331144 L168.008085,110.206144 Z M203.468085,99.7211435 L213.008085,115.336144 L206.033085,115.336144 L198.248085,102.871144 L195.008085,102.871144 L195.008085,115.336144 L188.393085,115.336144 L188.393085,85.9961435 L195.008085,85.9961435 L195.008085,97.5161435 L198.248085,97.5161435 L202.073085,90.7661435 C204.323085,86.8061435 206.483085,85.4561435 209.813085,85.4561435 C210.623085,85.4561435 211.613085,85.5461435 212.243085,85.8611435 L211.163085,91.8461435 C210.668085,91.6661435 210.128085,91.6661435 209.858085,91.6661435 C208.553085,91.6661435 207.788085,92.2511435 206.573085,94.3211435 L203.468085,99.7211435 Z M216.383085,115.336144 L216.383085,85.9961435 L222.953085,85.9961435 L222.953085,96.3461435 C222.953085,99.8111435 222.413085,103.951144 222.098085,107.056144 L222.278085,107.056144 L225.158085,100.621144 L232.853085,85.9961435 L239.873085,85.9961435 L239.873085,115.336144 L233.348085,115.336144 L233.348085,104.941144 C233.348085,101.476144 233.888085,97.5611435 234.158085,94.3211435 L233.978085,94.3211435 L231.098085,100.711144 L223.403085,115.336144 L216.383085,115.336144 Z" id="КОРОБКИ" fill-opacity="0.538581295" fill="#F8E71C" transform="translate(142.448085, 100.666144) rotate(30.000000) translate(-142.448085, -100.666144) "></path>
            </g>
        </g>
    </g>
</svg>