<svg height="77" viewBox="0 0 77 77" width="77" xmlns="http://www.w3.org/2000/svg"><g fill="none" fill-rule="evenodd"><circle cx="38.5" cy="38.5" fill="#8cbf4f" r="38.5"/><g fill="#fff"><g fill-rule="nonzero" transform="translate(19 25)"><path d="m1.33180185 2.62857143h3.81780584l5.43821701 19.40759327c.1553508.5695496.6880715.9638353 1.2873823.9638353h16.7141132c.5327207 0 .9988514-.3066924 1.2207922-.7885714l6.081869-13.80000003c.1775997-.4161647.1331802-.8761647-.1110096-1.24857143-.2441898-.37240672-.6506404-.40630194-1.3706689-.40630194-.480019 0-1.0737382.8144816-1.7811576 2.4434448l-4.9276669 11.1714286h-14.82742l-5.43813864-19.40759331c-.15535077-.56954958-.68807151-.96383529-1.28738234-.96383529h-4.81673557c-.73249102 0-1.33180185.59142857-1.33180185 1.31428571 0 .72285715.59931083 1.31428572 1.33180185 1.31428572z"/><path d="m10 32c1.6544261 0 3-1.3455739 3-3s-1.3455739-3-3-3c-1.65442608 0-3 1.3454961-3 2.9999221 0 1.6544261 1.34557392 3.0000779 3 3.0000779z"/><path d="m28.9898429 32h.2209356c.7954621-.0661019 1.5246357-.4186196 2.0549437-1.0356227.5303081-.5949173.7733919-1.3661324.7291736-2.1813635-.1105069-1.63054-1.5467058-2.8864766-3.2039185-2.7762808-1.6572126.1101958-2.894624 1.5644381-2.7841172 3.1949004.1104289 1.5644381 1.4141288 2.7983666 2.9829828 2.7983666z"/></g><path d="m38.3786797 35.8786797v-12.3786797c0-.8284271.6715728-1.5 1.5-1.5.8284271 0 1.5.6715729 1.5 1.5v12.1568542l1.596194-1.596194c.5857865-.5857865 1.5355339-.5857865 2.1213204 0 .5857864.5857864.5857864 1.5355339 0 2.1213203l-3.5355339 3.5355339c-.0744189.0744189-.1547118.1393835-.2393864.1948938-.1791637.6278947-.7571949 1.0875918-1.4425941 1.0875918-.6335116 0-1.1752962-.3927295-1.3951724-.948007-.1852305-.0731849-.3588328-.1846778-.5086336-.3344786l-3.5355339-3.5355339c-.5857864-.5857864-.5857864-1.5355339 0-2.1213203.5857865-.5857865 1.5355339-.5857865 2.1213204 0z"/></g></g></svg>