<svg height="240" viewBox="0 0 240 240" width="240" xmlns="http://www.w3.org/2000/svg"><path d="m158.864081 259.332589-11.406725 10.124042-9.284604-12.099824-13.116578 7.78235-6.826912-13.638287-14.352364 5.159384-4.1224777-14.683827-15.0694179 2.349944-1.2690468-15.198655-15.2418238-.544428 1.6302509-15.164164-14.8633505-3.419124 4.4706272-14.581601-13.9476769-6.170243 7.1494231-13.472021-12.5278979-8.698354 9.5698205-11.875527-10.6553282-10.912084 11.6443395-9.84982-8.397647-12.731422 13.2980018-7.468115-5.836453-14.090615 14.4710396-4.8164926-3.0643144-14.9405345 15.1210564-1.9907906-.1814236-15.2504649 15.2245588.9068644 2.7080245-15.0092037 14.7778064 3.7717428 5.499597-14.2254709 13.796945 6.5003008 8.0924-12.9275925 12.317426 8.9939208 10.392724-11.1624771 10.392723 11.1624771 12.317426-8.9939208 8.092401 12.9275925 13.796944-6.5003008 5.499598 14.2254709 14.777806-3.7717428 2.708024 15.0092037 15.224559-.9068644-.181423 15.2504649 15.121056 1.9907906-3.064315 14.9405345 14.47104 4.8164926-5.836453 14.090615 13.298002 7.468115-8.397647 12.731422 11.644339 9.84982-10.655328 10.912084 9.569821 11.875527-12.527898 8.698354 7.149423 13.472021-13.947677 6.170243 4.470627 14.581601-14.86335 3.419124 1.630251 15.164164-15.241824.544428-1.269047 15.198655-15.069418-2.349944-4.122478 14.683827-14.352364-5.159384-6.826911 13.638287-13.116579-7.78235-9.284603 12.099824z" fill="#ffc000" fill-rule="evenodd" transform="translate(-39 -30)"/></svg>