<svg width="22" height="22" viewBox="0 0 22 22" fill="none" xmlns="http://www.w3.org/2000/svg">
<path fill-rule="evenodd" clip-rule="evenodd" d="M0.332581 0.292923C-0.0578003 0.683426 -0.0578003 1.3166 0.332581 1.70711L9.15167 10.5261L0.292786 19.3848C-0.0975952 19.7753 -0.0975952 20.4085 0.292786 20.799C0.683411 21.1895 1.31647 21.1895 1.70709 20.799L10.5657 11.9403L19.4246 20.799C19.815 21.1895 20.4483 21.1895 20.8387 20.799C21.2293 20.4085 21.2293 19.7753 20.8387 19.3848L11.98 10.5261L20.7989 1.70717C21.1895 1.3166 21.1895 0.683487 20.7989 0.292923C20.4085 -0.09758 19.7752 -0.09758 19.3848 0.292923L10.5657 9.11189L1.74689 0.292923C1.35626 -0.097641 0.723206 -0.097641 0.332581 0.292923Z" fill="#C4C4C4"/>
</svg>
