<svg xmlns="http://www.w3.org/2000/svg" viewBox="0 0 71.36 95.16"><defs><style>.cls-1{fill:#fff;}</style></defs><title>logo_small</title><g id="Слой_2" data-name="Слой 2"><g id="Layer_1" data-name="Layer 1"><path class="cls-1" d="M44.61,29.71c.46,1.35-5.44,4.55-13.16,7.16S17.1,40.5,16.64,39.15,22.08,34.6,29.81,32s14.35-3.63,14.81-2.28"/><path class="cls-1" d="M28.91,37.69,1.81,20.58,0,23.44,24.45,38.89c1.38-.32,2.88-.72,4.46-1.2"/><path class="cls-1" d="M31.45,36.88Q32.78,36.43,34,36L17,16.21,21,.87,17.76,0,13.21,17.07l17.37,20.1.87-.29"/><path class="cls-1" d="M20.92,79.91l0,0c0-.06,0,0,0,0"/><path class="cls-1" d="M54.69,70.88c-2,5-6.13,8.44-10.89,8.44-6.75,0-12.22-6.9-12.22-15.41S37,48.51,43.8,48.51c3.93,0,7.42,2.35,9.66,6l14.37-8.88A31.92,31.92,0,0,0,57.2,33l-2,4.75L44.49,35.15,24.33,47.79l-7.91-3L9.66,49.68A35.17,35.17,0,0,0,21.35,91.86l.23-.06a24,24,0,0,1-1.89-1.89,8.08,8.08,0,0,1-1.19-2.22c-.33-.81-1-1.52-1.28-2.35a8.46,8.46,0,0,0-.29-1.14,3.09,3.09,0,0,0-.53-.67A9.84,9.84,0,0,1,14.5,79a1.91,1.91,0,0,1,0-1.24,11.49,11.49,0,0,0,1.37,2.77c.52.86,1.42,3.34,2.69,3,.74-.17,1.47,1.21,1.8,1.66.09-.17.39-1,.14-1.15a.87.87,0,0,1,.43.48,1.62,1.62,0,0,1,0,.39c0,.42.42.59.41,1,0,.21-.06.45.07.61s.35.16.53.21c.8.24,1.19,1.36,2,1.71-.71-.31-1.46-3.51-.57-3.9-.08,0,2.52,3.28,4.19,5.16a.29.29,0,0,0,.11-.16c0-.16-.15-.27-.29-.37a.55.55,0,0,1,.09-.87c.36-.14,1.26,1.51,1.43,2.27,9.5-.29,17.6,5.09,25.57,4.45,1.36-.7,2.45-1.74,1.18-2.3,0,0,3.57-2.51,2.23-.35.85-.77,1.45-.77,1.14-.36a22.66,22.66,0,0,1-1.88,2.17l.53-.18c.43-.68,1.57-1.85,1.87-1.61h0c.29.23,0,.65-.48,1l.39-.17L60,93a1,1,0,0,1,.47-.7c.37-.48,1.48-1.9,1.69-2.11h0c.22-.22-.07.77-.53,1.71a35,35,0,0,0,9.78-10.74Z"/></g></g></svg>