<svg xmlns="http://www.w3.org/2000/svg" viewBox="0 0 40.58 59.04">
  <defs>
    <style>
      .cls-1 {
        fill: #fff;
      }
    </style>
  </defs>
  <title>Ресурс 1</title>
  <g id="Слой_2" data-name="Слой 2">
    <g id="Слой_1-2" data-name="Слой 1">
      <path class="cls-1" d="M40.53,7.39h0a1.57,1.57,0,0,1,0-.49s0-.11,0-.19a2.09,2.09,0,0,0-1.32-2L28.7,0,25.24,6.49l-.2.38.3.13,6.84,3c0,.1,0,.23,0,.37s0,.32,0,.51.05.44.06.5a15.07,15.07,0,0,1,.06,2.73,16.29,16.29,0,0,1-.24,2,111.9,111.9,0,0,1-3.49,13.73c-.11.34-.31.94-.64,1.71a18.87,18.87,0,0,1-1.83,3.3l.08,0c-.21.31-.38.55-.5.72a111.9,111.9,0,0,1-9.09,10.87,16.28,16.28,0,0,1-1.45,1.34A15.08,15.08,0,0,1,13,49.27l-.44.24-.44.26-.31.2-6.4-3.81L5.09,46v0l-.91-.47L0,51.71,1.65,53l9.89,5.73A2.09,2.09,0,0,0,14,58.59l.18-.08a1.57,1.57,0,0,1,.42-.25h0a2.79,2.79,0,0,0,.67-.45,77.18,77.18,0,0,0,9.22-8.28v0A55.53,55.53,0,0,0,33,38.46c.51-.87,1-1.73,1.42-2.59l0,0c.3-.62.6-1.24.89-1.89a55.53,55.53,0,0,0,4-13.41h0A77.18,77.18,0,0,0,40.56,8.2,2.79,2.79,0,0,0,40.53,7.39ZM13.7,58.54h0Zm26.55-52,0,0,0,0Z"/>
    </g>
  </g>
</svg>
